<svg fill="#FFFFFF" xmlns="http://www.w3.org/2000/svg"  viewBox="0 0 48 48" width="32px" height="32px"><path d="M 12 5.0292969 L 4.9902344 37.230469 L 14.310547 37.230469 L 16.730469 26.119141 L 17.480469 22.679688 L 18.900391 16.160156 C 19.300391 14.320156 20.920547 13.009766 22.810547 13.009766 L 36.310547 13.009766 C 36.330547 13.009766 36.349141 12.999766 36.369141 13.009766 L 36.369141 13 L 36.529297 13 C 36.529297 12.93 36.519531 12.870781 36.519531 12.800781 C 36.509531 12.790781 36.490703 12.800781 36.470703 12.800781 C 36.490703 12.800781 36.509531 12.789062 36.519531 12.789062 C 36.209531 7.4990625 31.760078 5.0292969 27.830078 5.0292969 L 12 5.0292969 z M 36.529297 13 C 36.569297 13.91 36.499531 14.91 36.269531 16 C 34.849531 22.65 29.619531 26.119141 23.269531 26.119141 L 19.800781 26.119141 L 15.679688 45 L 23.949219 44.990234 L 26.330078 33.939453 L 31.810547 33.939453 C 38.130547 33.939453 43.300938 30.510391 44.710938 23.900391 C 46.280938 16.530391 41.099297 13.11 36.529297 13 z"/></svg>