<svg version="1.2" xmlns="http://www.w3.org/2000/svg" viewBox="0 0 48 48" width="48" height="48">
	<title>file-import-line</title>
	<style>
		.s0 { fill: #ffffff } 
		.s1 { fill: #212121 } 
	</style>
	<g>
		<g>
			<path id="Shape 1" fill-rule="evenodd" class="s0" d="m24 48c-13.3 0-24-10.7-24-24 0-13.3 10.7-24 24-24 13.3 0 24 10.7 24 24 0 13.3-10.7 24-24 24z"/>
			<path fill-rule="evenodd" class="s1" d="m27.6 11q0.2 0 0.4 0 0.3 0.1 0.5 0.2 0.2 0 0.4 0.2 0.2 0.1 0.4 0.2l0.2 0.2 5.9 5.9q0.1 0.2 0.3 0.4 0.1 0.2 0.2 0.4 0.1 0.2 0.2 0.4 0 0.2 0.1 0.5v0.2 15.6q0 0.5-0.2 0.9-0.2 0.5-0.6 0.9-0.3 0.4-0.8 0.6-0.4 0.2-0.9 0.2l-0.2 0.1h-8.1v-2.7h8.1v-13.5h-6.1q-0.3 0-0.7-0.1-0.3-0.1-0.6-0.4-0.3-0.2-0.5-0.6-0.1-0.3-0.2-0.7v-0.2-6h-8v10.7h-2.7v-10.7q0-0.5 0.2-1 0.2-0.5 0.5-0.8 0.3-0.4 0.8-0.6 0.5-0.3 1-0.3h0.2zm-7.9 16.7l3.8 3.8q0.2 0.2 0.3 0.5 0.1 0.2 0.1 0.5 0 0.2-0.1 0.5-0.1 0.2-0.3 0.4l-3.8 3.8c-0.3 0.3-0.6 0.4-1 0.4-0.3 0-0.7-0.1-0.9-0.4-0.3-0.2-0.4-0.6-0.4-0.9 0-0.4 0.1-0.7 0.4-1l1.5-1.5h-5.9c-0.4 0-0.7-0.1-1-0.4-0.2-0.2-0.4-0.6-0.4-0.9 0-0.4 0.2-0.7 0.4-1 0.3-0.2 0.6-0.4 1-0.4h5.9l-1.5-1.5c-0.3-0.2-0.4-0.6-0.4-0.9 0-0.4 0.1-0.7 0.4-1 0.2-0.2 0.6-0.4 0.9-0.4 0.4 0 0.7 0.2 1 0.4zm8.4-13.5v4.9h4.8z"/>
		</g>
	</g>
</svg>